<svg width="53.87" height="43.61" viewBox="0 0 265 229" fill="none" xmlns="http://www.w3.org/2000/svg">
<path d="M38.5 227.5H0.5L71.5 105.5H72.5L143 227.5H107.5L72.5 168.5L38.5 227.5Z" fill="#10C8EF"/>
<path d="M72.5 168.5L91 137.5L91.8402 138.5L144 227.5H108L72.5 168.5Z" fill="url(#paint0_linear_8_58)"/>
<path d="M38.5 227.5H0.5L71.5 105.5H72.5L90.9918 137.5L72.5 168.5L38.5 227.5Z" fill="url(#paint1_linear_8_58)"/>
<path d="M265 228.5H229L178.5 141L176.164 136.705L169.5 147.5L144.5 173L124.5 168.5L79 93V91.5L97.5 61.5L144 141L163 112.5L176.164 136.705L194.5 107L265 228.5Z" fill="#0FC1EF"/>
<path d="M265 228.5H229L178.5 141L176.164 136.705L169.5 147.5L144.5 173L124.5 168.5L79 93V91.5L97.5 61.5L144 141L163 112.5L176.164 136.705L194.5 107L265 228.5Z" fill="url(#paint2_linear_8_58)"/>
<path d="M157.5 227.5H193.5L160.5 170.5V169.5L195.5 108.5L133.5 0.5H132.5L115.5 29.5V30.5L160.5 108.5L124.5 168.5L157.5 227.5Z" fill="#10C8EF"/>
<path d="M157.5 227.5H193.5L160.5 170.5V169.5L195.5 108.5L133.5 0.5H132.5L115.5 29.5V30.5L160.5 108.5L124.5 168.5L157.5 227.5Z" fill="url(#paint3_linear_8_58)"/>
<defs>
<linearGradient id="paint0_linear_8_58" x1="131.5" y1="230" x2="81.5" y2="146" gradientUnits="userSpaceOnUse">
<stop stop-color="white" stop-opacity="0.37"/>
<stop offset="1" stop-opacity="0"/>
<stop offset="1" stop-color="white" stop-opacity="0.32"/>
</linearGradient>
<linearGradient id="paint1_linear_8_58" x1="18" y1="228" x2="72" y2="142" gradientUnits="userSpaceOnUse">
<stop stop-color="white" stop-opacity="0.29"/>
<stop offset="1" stop-opacity="0"/>
<stop offset="1" stop-color="white" stop-opacity="0.38"/>
</linearGradient>
<linearGradient id="paint2_linear_8_58" x1="71" y1="62" x2="276" y2="233.5" gradientUnits="userSpaceOnUse">
<stop stop-opacity="0.04"/>
<stop offset="1" stop-color="white" stop-opacity="0.48"/>
</linearGradient>
<linearGradient id="paint3_linear_8_58" x1="155.5" y1="0.5" x2="155.5" y2="227.5" gradientUnits="userSpaceOnUse">
<stop stop-color="white" stop-opacity="0.42"/>
<stop offset="1" stop-opacity="0.04"/>
</linearGradient>
</defs>
</svg>
